<?xml version="1.0" encoding="UTF-8" standalone="no"?>
<svg
   viewBox="0 0 1024 1024"
   width="100%"
   version="1.1"
   id="svg1"
   sodipodi:docname="ORAYA_logo_full.svg"
   style="background:transparent"
   inkscape:version="1.3.2 (091e20e, 2023-11-25, custom)"
   inkscape:export-filename="ORAYA_logo_full_final.svg"
   inkscape:export-xdpi="96"
   inkscape:export-ydpi="96"
   xmlns:inkscape="http://www.inkscape.org/namespaces/inkscape"
   xmlns:sodipodi="http://sodipodi.sourceforge.net/DTD/sodipodi-0.dtd"
   xmlns="http://www.w3.org/2000/svg"
   xmlns:svg="http://www.w3.org/2000/svg">
  <defs
     id="defs1" />
  <sodipodi:namedview
     id="namedview1"
     pagecolor="#ffffff"
     bordercolor="#000000"
     borderopacity="0.25"
     inkscape:showpageshadow="2"
     inkscape:pageopacity="0.0"
     inkscape:pagecheckerboard="0"
     inkscape:deskcolor="#d1d1d1"
     showgrid="false"
     inkscape:zoom="0.56140411"
     inkscape:cx="661.73366"
     inkscape:cy="522.79631"
     inkscape:window-width="1920"
     inkscape:window-height="1009"
     inkscape:window-x="-8"
     inkscape:window-y="-8"
     inkscape:window-maximized="1"
     inkscape:current-layer="svg1">
    <inkscape:grid
       id="grid1"
       units="px"
       originx="0"
       originy="0"
       spacingx="1"
       spacingy="1"
       empcolor="#0099e5"
       empopacity="0.30196078"
       color="#0099e5"
       opacity="0.14901961"
       empspacing="5"
       dotted="false"
       gridanglex="30"
       gridanglez="30"
       visible="false" />
  </sodipodi:namedview>
  <g
     id="g2"
     transform="matrix(1.1135619,0,0,1.1135619,-53.809139,-44.514135)">
    <path
       fill="#c5a46d"
       opacity="1"
       stroke="none"
       d="m 453.62125,197.04052 c 21.54778,-6.05471 43.04046,-9.93097 64.95311,-9.14091 25.85261,0.93214 51.02655,5.73461 75.15399,15.74131 26.10601,10.82728 49.02513,26.24833 67.63133,47.33267 10.0007,11.33274 18.45648,24.16098 26.6331,36.93909 11.29497,17.65128 17.05802,37.68498 20.3014,58.09486 3.04747,19.17667 2.61716,38.57289 -0.40184,58.0045 -3.26644,21.02389 -10.72221,40.31974 -20.91595,58.66169 -11.5281,20.74288 -26.74134,38.35076 -45.56251,53.0472 -13.33381,10.41164 -27.11572,19.92545 -42.51959,26.85725 -17.6878,7.95962 -36.0139,14.03748 -55.48073,15.76228 -11.65141,1.03237 -23.33699,2.02703 -35.02228,2.25054 -19.04092,0.36435 -37.48971,-3.49611 -55.67666,-8.94132 -26.08285,-7.80925 -49.09715,-20.88385 -69.85641,-38.49201 -17.21325,-14.60048 -31.18967,-31.73023 -42.11129,-51.25066 -10.96223,-19.59286 -17.85375,-40.73036 -20.29066,-63.15456 -0.96907,-8.91758 -2.49772,-17.91776 -2.12096,-26.8104 1.00302,-23.67521 5.1394,-46.67301 14.71611,-68.74806 10.69039,-24.64229 26.22065,-45.59999 45.75664,-63.49455 19.86487,-18.19575 42.91201,-31.56085 68.50459,-40.32169 1.97599,-0.6764 3.89134,-1.53008 6.30861,-2.33723 m -78.23132,189.09997 c 6.63086,-5.81566 12.94616,-12.05023 19.9715,-17.3422 9.01646,-6.79174 21.24166,-15.14625 32.74382,-18.14252 3.7163,-2.84988 3.9111,-2.75114 6.77661,-5.48664 7.04926,-6.72942 13.48852,-14.09513 20.22736,-21.15313 7.7224,-8.08802 15.3208,-16.30698 23.31528,-24.11887 6.70191,-6.54881 13.4444,-13.21394 20.9854,-18.70654 9.56088,-6.96371 17.54199,-9.08563 27.06861,1.29116 2.15055,2.3424 3.67461,5.24866 5.60586,7.80565 7.23636,9.58127 14.20951,19.38552 21.88572,28.60287 6.39703,7.68145 13.57561,14.72194 20.5985,21.85886 0.79992,0.81291 3.2458,1.08403 4.22426,0.47504 8.88261,-5.52847 16.77657,-4.63219 23.60846,3.12237 4.17289,4.73644 7.80502,10.01909 12.37114,14.32323 6.84649,6.45384 14.10805,12.51171 21.55213,18.27423 6.81993,5.27929 14.11572,9.94376 22.65099,15.88838 3.08776,-48.92263 -4.26489,-93.22872 -35.27191,-130.81912 -31.88662,-38.65674 -73.70131,-52.04529 -123.18032,-50.66898 -28.65173,4.3119 -35.14478,6.91788 -57.16089,18.44132 -29.42685,15.4023 -48.1696,41.29361 -60.11758,72.12144 -9.35224,24.13025 -11.47275,45.9591 -13.37245,71.64417 -0.35577,4.8103 -0.39879,6.45117 -0.23388,11.49349 0.39086,0.28126 0.18325,4.50994 0.64697,5.81137 0.65201,-0.86215 3.87002,-3.33991 5.10441,-4.71558 m 235.52499,117.1103 c 16.53796,-14.8713 39.46885,-39.75374 39.48092,-54.43067 -14.83787,4.01104 -33.93415,6.86215 -49.34351,7.68217 -22.05875,1.17388 -42.99076,-0.7432 -65.16568,-7.43129 -18.47573,-5.57238 -35.50877,-15.15979 -53.18998,-22.91161 -12.90872,-5.65941 -26.01912,-10.44172 -40.28802,-11.19915 -21.36674,-1.1342 -40.19892,6.87312 -58.56096,16.36615 -1.38679,0.71698 -2.84983,3.9657 -2.33316,5.26347 2.49843,12.30795 6.25402,23.12282 14.06288,33.00321 7.19212,-4.29699 13.07407,-7.78017 19.35337,-9.93643 6.30828,-2.16624 14.35996,-4.09622 21.11292,-3.62415 14.22828,0.99463 25.59844,2.76228 38.30944,7.96483 8.10614,3.31789 16.05181,7.20239 24.4095,9.69075 13.02474,3.87796 26.23743,7.30291 39.56875,9.90385 7.56968,1.47687 25.5607,1.11619 25.5607,1.11619 0,0 -3.12824,2.05066 -3.98132,2.29793 -8.70129,2.52224 -20.65953,3.514 -31.06553,3.21198 -13.87723,-0.40276 -27.5407,-3.74495 -41.1102,-6.67893 -9.16387,-1.9814 -27.14634,-7.36194 -27.14634,-7.36194 -10.1972,-2.76543 -21.93541,-4.38034 -32.6178,-3.03796 -8.03432,1.00963 -14.59005,5.70545 -22.4121,10.42385 10.30661,10.84686 17.79313,17.8765 28.53507,25.62676 9.4149,6.79274 19.24633,12.19701 29.69186,16.45741 21.83083,8.90418 44.62901,11.15351 68.09435,8.39648 14.3218,-1.68271 30.19611,-4.11706 43.24265,-9.99465 10.76183,-4.8483 23.91225,-11.26935 35.79219,-20.79825 z M 506.25488,375.41575 c -10.29888,-4.48579 -19.78301,-8.38384 -30.08188,-12.86962 -1.26807,-0.58165 -1.96613,-0.39202 -2.28096,0.58501 -0.60484,2.16363 1.20383,4.12439 2.54117,5.43762 2.97271,2.91907 6.42154,5.35342 9.67683,7.98467 9.37878,7.58079 18.5845,15.38951 28.18356,22.68028 10.44737,7.93514 20.57672,16.71702 32.11748,22.6565 10.26655,5.28371 20.71219,8.80183 32.30436,10.66854 15.76635,2.53888 32.57247,3.03424 48.30312,1.06416 3.77788,-0.47309 8.38449,-0.85703 12.02946,-1.58699 6.80184,-1.36218 12.25215,-1.64958 17.02289,-3.10354 1.76919,-6.33051 1.96959,-9.0727 2.84833,-17.6193 -6.72472,-3.58754 -9.94251,-5.37269 -12.29381,-6.83405 -7.85746,-4.8835 -16.18552,-9.23603 -23.26575,-15.08437 -8.14773,-6.72999 -15.55562,-14.45377 -22.72814,-22.27672 -4.51416,-4.92353 -5.54638,-5.30814 -7.03776,-4.29603 -1.18216,0.9025 -1.73274,1.50069 -1.35675,5.87158 0.23481,2.72975 0.47572,3.65782 1.92516,8.96253 1.90228,5.85183 2.68799,7.70018 4.566,13.55984 -5.8066,-2.3759 -11.54111,-5.12396 -15.6185,-9.43817 -7.44821,-7.88098 -14.19734,-16.47795 -20.71072,-25.17135 -6.12012,-8.1685 -11.58665,-16.8288 -17.28865,-25.30772 -3.80533,-5.65844 -7.12485,-11.6971 -11.39025,-16.977 -3.91599,-4.84728 -8.41366,-9.43831 -13.40297,-13.1322 -3.52319,-2.60844 -8.5657,-0.18147 -8.53342,3.65198 0.0392,4.65265 0.63685,9.52772 2.16884,13.89394 3.31447,9.44629 7.37848,18.62958 11.13593,27.92044 -8.11322,-3.54919 -14.60752,-8.14679 -21.56636,-11.87802 -2.08405,-1.11745 -6.75024,-1.28411 -8.2523,0.37782 -1.98542,2.7026 -0.023,5.19648 1.20355,6.90705 3.55421,4.95682 7.91912,9.32273 11.66372,14.15467 7.61427,9.82529 15.03018,19.80438 22.52786,29.72011 0.84801,1.76486 0.18408,2.43673 -1.50001,1.35974 -6.88868,-4.80704 -13.92587,-7.49664 -22.91003,-11.8814 z"
       id="path2"
       sodipodi:nodetypes="csssssssssssssssssssccscsssssssssssscscssscccccsssssccssssscsaasscsssscccccsssssssccssscsccssssssscscsscc"
       style="stroke-width:1.1659" />
  </g>
  <g
     id="g1"
     transform="matrix(1.0530954,0,0,1.0530954,-26.434938,-49.158652)">
    <path
       fill="#c5a46d"
       opacity="1"
       stroke="none"
       d="m 366.71867,628.35804 c 14.38464,0.55499 27.36417,3.2996 38.42492,12.63259 8.5437,7.20911 11.28475,16.95746 12.57247,27.08397 1.69222,13.30733 -1.90952,25.99264 -10.98302,35.66713 -6.19355,6.60376 -14.89814,10.85242 -22.71028,16.31503 7.41606,12.01498 15.68387,25.43026 23.97385,38.83189 3.9785,6.43161 8.03568,12.81468 11.99134,19.26023 5.28422,8.61049 17.51963,7.27133 22.37618,14.77475 0.82002,1.26695 0.72869,4.46849 0.72869,4.46849 -8.46543,0 -16.54566,-0.2438 -24.60576,0.0553 -13.12844,0.48709 -21.5213,-6.43966 -27.62597,-17.05681 -9.71537,-16.89699 -19.26675,-33.88818 -28.98713,-50.78224 -2.26432,-3.93536 -5.66639,-6.22653 -10.51128,-5.66037 -1.1489,0.13421 -2.32786,0.0751 -3.48956,0.0251 -9.44276,-0.40597 -9.80977,-0.42198 -10.06353,8.76306 -0.408,14.76713 -0.52581,29.55347 -0.27682,44.32353 0.14773,8.76255 4.95224,12.94128 13.75192,13.42254 3.94361,0.21562 8.52837,0.008 6.53209,7.19224 h -65.40613 c -0.1684,-2.12914 -0.29536,-3.73402 -0.45301,-5.72718 3.24601,-0.54964 6.22488,-0.96679 9.16593,-1.56854 8.67603,-1.77532 11.88785,-6.16731 11.8126,-17.28296 -0.0887,-13.10921 -0.94061,-26.21679 -0.88788,-39.32274 0.10213,-25.36124 0.23992,-50.73294 1.07037,-76.07709 0.56793,-17.33377 -4.78302,-20.96704 -20.80889,-22.66971 -0.10224,-1.03042 -0.2845,-2.13291 -0.29905,-3.23761 -0.0122,-0.9268 0.17114,-1.8561 0.33517,-3.42954 24.73691,0 49.28405,0 74.37278,-10e-4 m -28.13983,40.06596 c -0.37707,12.77057 -0.86246,25.54006 -0.98163,38.31305 -0.0135,1.44961 1.96469,4.12242 3.13458,4.18846 9.58866,0.54154 19.31247,1.81283 28.6836,-1.29307 3.13109,-1.03766 6.41474,-2.67893 8.72022,-4.96177 10.63971,-10.53547 11.54268,-23.91645 10.14354,-37.78069 -1.4985,-14.84911 -9.33427,-24.78262 -24.12467,-27.29795 -8.21436,-1.39704 -16.86128,-0.25071 -26.12294,-0.25071 0,9.5252 0,18.98492 0.5473,29.08268 z"
       id="path3"
       sodipodi:nodetypes="cssscssacssssssssccccssscscccscsssscc"
       style="stroke-width:1.1659" />
    <path
       fill="#c5a46d"
       opacity="1"
       stroke="none"
       d="m 240.35565,644.88477 c 15.6686,15.27316 25.80482,33.53081 27.99089,54.60289 3.03388,29.24463 -3.57958,55.94761 -26.10669,77.37008 -14.99662,14.26125 -32.43754,21.94821 -52.6003,23.9252 -32.76606,3.21271 -58.63335,-9.01461 -78.48772,-35.18779 -11.987472,-15.8026 -16.587447,-34.08025 -15.758279,-52.89289 1.647273,-37.37393 19.011159,-65.70984 54.195079,-80.94115 8.01302,-3.46896 17.27554,-4.91795 26.07949,-5.4841 12.21873,-0.78569 24.81113,-1.75398 36.51132,3.34905 7.94256,3.46426 15.56505,7.67123 23.27314,11.65725 1.65987,0.85835 3.07256,2.19461 4.90307,3.60146 m -45.28704,-7.95089 c -12.30882,-3.16952 -24.42522,-1.98604 -35.63405,3.52773 -16.7091,8.21953 -26.56768,22.48306 -31.82113,39.9958 -3.96949,13.23261 -4.55,26.76659 -3.67821,40.57625 1.40213,22.21022 8.05076,42.09149 24.85678,57.19706 19.21172,17.26809 48.1467,17.25328 67.54462,-0.12539 12.24202,-10.96762 19.28006,-24.70413 22.45648,-40.82667 3.7299,-18.93197 3.83031,-37.71323 -1.7041,-56.16351 -6.37542,-21.25425 -18.85241,-37.24428 -42.02039,-44.18127 z"
       id="path4"
       style="stroke-width:1.1659" />
    <path
       fill="#c5a46d"
       opacity="1"
       stroke="none"
       d="m 809.68005,738.83994 c -2.24214,4.88392 -4.88663,9.62923 -6.62987,14.68523 -2.4658,7.15154 -4.52805,14.47003 -6.28294,21.83163 -2.08304,8.73824 2.67366,14.74587 11.47223,15.13405 5.61823,0.24785 6.2283,1.25742 4.00672,6.73355 h -54.28067 c -1.98048,-3.84249 0.0204,-6.09318 3.2631,-6.6086 8.35957,-1.32872 13.06794,-6.51579 16.12873,-13.81364 6.0871,-14.51394 12.29527,-28.97885 18.21189,-43.5621 5.55711,-13.69722 10.74845,-27.54239 16.19818,-41.28381 7.78992,-19.64231 15.71798,-39.22989 23.48315,-58.88194 2.81634,-7.12785 3.40107,-7.49183 13.13711,-6.8363 3.67413,0.24735 5.72526,1.20981 7.25239,5.33403 10.42523,28.15551 21.28548,56.1512 32.16053,84.13821 7.97409,20.5215 16.10047,40.98492 24.33132,61.40473 3.12945,7.76375 8.4476,12.91324 17.43254,13.65041 4.16705,0.34185 5.71424,2.96734 3.27433,6.73453 h -69.76758 c -1.76793,-4.76423 -0.82434,-7.17723 4.19593,-7.0189 1.55145,0.0491 3.13166,0.134 4.65657,-0.0878 7.6533,-1.1126 10.62918,-5.68305 8.09948,-13.04246 -3.93812,-11.45673 -8.09251,-22.84242 -12.41141,-34.16045 -0.5256,-1.3776 -0.77205,-2.12455 -1.9526,-4.6942 -0.75058,-1.26895 -2.62392,-1.6207 -2.92721,-1.62226 -16.39415,-0.0873 -32.7893,-0.11735 -49.18289,0.0212 -1.29506,0.0105 -2.9918,0.18518 -3.86903,1.94476 m 50.19545,-16.88853 c -6.44406,-18.78081 -12.86891,-37.5682 -19.38527,-56.3239 -0.34556,-0.99441 -1.51417,-2.44524 -2.21154,-2.39764 -0.99405,0.0681 -2.4276,1.13858 -2.77714,2.10495 -6.87252,19.00499 -13.51918,38.09217 -20.46727,57.06898 -1.35121,3.69027 -0.0138,4.13196 3.04605,4.12228 14.51515,-0.0459 29.03052,-0.0205 43.42546,-0.0205 -0.30257,-0.98245 -0.73344,-2.38147 -1.63029,-4.55417 z"
       id="path5"
       sodipodi:nodetypes="csssccssssssssssccscssccsccsscssccc"
       style="stroke-width:1.1659" />
    <path
       fill="#c5a46d"
       opacity="1"
       stroke="none"
       d="m 482.10293,761.27076 c 10.33016,-26.62883 20.51234,-52.82521 30.75667,-78.9974 6.41662,-16.39308 12.99973,-32.72142 19.34403,-49.14227 1.59913,-4.13907 3.49122,-6.32436 8.60828,-6.07344 10.77912,0.52858 10.60805,0.21953 14.77496,10.80651 11.0158,27.98808 22.25619,55.88769 33.32031,83.85691 7.10437,17.95893 14.06264,35.9757 21.07101,53.97247 3.42406,8.79281 9.70691,14.10004 19.14211,15.0078 4.84016,0.46568 4.92798,3.9051 4.85475,6.66488 -3.63441,0.0437 -4.75591,0.016 -6.24197,0.0174 -20.57885,0.0193 -41.15764,0.008 -61.73649,0.002 -2.39294,-7.1e-4 -5.51825,0.68393 -5.37273,-2.97553 0.0407,-1.02201 2.7128,-2.39428 4.37982,-2.82601 15.65209,-4.05384 16.35736,-5.26514 10.75037,-21.18893 -3.1999,-9.08777 -6.41388,-18.18506 -10.13212,-27.06433 -0.79196,-1.89111 -3.7736,-4.02224 -5.78625,-4.06273 -16.49464,-0.33204 -32.99881,-0.16388 -49.49972,-0.22728 -3.29759,-0.0127 -5.27263,0.985 -6.26676,4.50627 -2.96699,10.51006 -6.50091,20.86072 -9.42902,31.38074 -2.54906,9.15815 0.82256,14.15223 10.55056,15.40225 4.46706,0.57405 6.7987,1.91751 5.78447,7.3503 h -55.35007 c -0.24377,-1.01825 -0.66344,-2.77108 -1.15402,-4.82038 1.03333,-0.63525 2.08014,-1.75597 3.26931,-1.93593 11.79065,-1.7843 16.4687,-10.78169 20.70136,-20.21757 1.31705,-2.93626 2.3671,-5.99241 3.66114,-9.43632 m 41.29821,-69.99118 c -4.28326,11.79552 -8.5665,23.5911 -13.28406,36.5827 h 50.1726 c -8.24016,-23.41007 -16.18949,-45.99375 -24.66406,-70.06981 -4.17303,11.59648 -7.96506,22.13421 -12.22448,33.48711"
       id="path6"
       sodipodi:nodetypes="csssssssccsssssssssscccsscccccc"
       style="stroke-width:1.1659" />
    <path
       fill="#c5a46d"
       opacity="1"
       stroke="none"
       d="m 705.86459,765.88235 c 0.16068,4.62789 -0.16972,8.77402 0.5863,12.71165 1.48605,7.74068 2.45498,10.96578 15.16691,11.93641 4.51574,0.34485 6.21656,1.70509 4.65842,6.49459 -21.55874,0 -43.41252,0 -65.31426,0 -2.33337,-6.45737 -2.33337,-6.45737 4.52947,-6.57052 9.25172,-0.15257 13.60272,-4.5521 13.60393,-13.79998 0.002,-10.88152 -0.37786,-21.77813 0.0831,-32.63952 0.33773,-7.95858 -1.27044,-14.9562 -5.57632,-21.71757 -10.18835,-15.99872 -19.96296,-32.26051 -29.96678,-48.3775 -4.70147,-7.57445 -9.84663,-14.88917 -14.24951,-22.62943 -5.48281,-9.6387 -13.14466,-15.55417 -24.46133,-16.09685 -1.254,-4.92136 -0.0299,-7.25957 5.25126,-6.85594 7.48287,0.57199 14.99435,1.16056 22.48882,1.10428 13.51477,-0.10162 27.0259,-0.68101 40.53889,-1.04636 1.71427,-0.0464 3.43075,-0.006 5.55533,-0.006 0.12133,2.25638 0.22139,4.11731 0.33133,6.16177 -4.16164,0.99163 -8.21725,1.75376 -12.14449,2.94066 -6.1745,1.8662 -8.32222,4.92755 -5.88431,10.61566 4.08337,9.52747 8.78298,18.84381 13.90943,27.85871 7.49938,13.18806 15.60505,26.03128 23.68717,39.41028 11.09614,-19.18652 22.22381,-38.3793 33.27484,-57.61599 1.02821,-1.78984 1.68303,-3.8227 2.31893,-5.80439 2.83747,-8.8439 -0.38833,-14.02599 -9.45446,-15.52116 -2.57931,-0.42547 -5.09976,-1.20732 -7.49148,-1.78792 -0.3953,-5.03344 1.64062,-6.67128 6.32721,-6.34878 8.09977,0.55741 16.23576,0.78228 24.35666,0.78605 8.43678,0.004 16.873,-0.4501 25.31099,-0.63198 1.82244,-0.0394 3.65142,0.22878 5.69808,0.37053 -0.50937,2.53718 -0.86432,4.30525 -1.31349,6.54241 -16.16274,0.2095 -22.1602,12.81554 -29.17134,24.24813 -8.73196,14.23841 -17.48812,28.46201 -26.24242,42.68675 -4.68667,7.61523 -9.60283,15.10088 -13.97148,22.89401 -1.50477,2.6842 -2.2472,6.10655 -2.33238,9.2192 -0.28165,10.29096 -0.10432,20.59444 -0.10304,31.46913 z"
       id="path7"
       style="stroke-width:1.1659" />
    <path
       fill="#c5a46d"
       opacity="1"
       stroke="none"
       d="m 813.54908,736.89518 c 16.39359,-0.13862 32.78874,-0.10854 49.18289,-0.0212 z"
       id="path8"
       sodipodi:nodetypes="ccc"
       style="stroke-width:1.1659" />
  </g>
</svg>
