<svg xmlns="http://www.w3.org/2000/svg" viewBox="280 70 465 465" width="100%" style="background:transparent">
<path
   fill="#C5A46D"
   opacity="1"
   stroke="none"
   d="m 410.51178,201.06905 c 18.48163,-5.19315 36.91599,-8.51784 55.71057,-7.8402 22.17389,0.7995 43.76569,4.9186 64.4599,13.50139 22.39124,9.28661 42.04907,22.51331 58.00769,40.59744 8.57764,9.72014 15.8302,20.72298 22.84332,31.68282 9.68775,15.13958 14.63074,32.32257 17.4126,49.82821 2.61383,16.44791 2.24475,33.08414 -0.34466,49.75071 -2.80164,18.03228 -9.19648,34.58242 -17.9397,50.31439 -9.8877,17.79126 -22.93616,32.89361 -39.07916,45.49881 -11.43647,8.93011 -23.25727,17.09015 -36.46924,23.03558 -15.1709,6.827 -30.88928,12.04001 -47.58606,13.51938 -9.99347,0.88547 -20.01624,1.73859 -30.03876,1.9303 -16.33148,0.3125 -32.15509,-2.99863 -47.75412,-7.66901 -22.37137,-6.69803 -42.11084,-17.91217 -59.91614,-33.01477 -14.76388,-12.52289 -26.75152,-27.21515 -36.11904,-43.95791 -9.40235,-16.80488 -15.31324,-34.93461 -17.40339,-54.16794 -0.83117,-7.64865 -2.1423,-15.36814 -1.81915,-22.9954 0.86029,-20.30633 4.40808,-40.03164 12.62207,-58.96551 9.16919,-21.1358 22.48956,-39.11131 39.24567,-54.45955 17.03818,-15.60657 36.80581,-27.06988 58.75668,-34.58409 1.69482,-0.58015 3.33762,-1.31235 5.41092,-2.00465 m -67.09934,162.19187 c 5.68732,-4.98812 11.10398,-10.33554 17.12964,-14.87448 7.73346,-5.82531 18.21907,-12.99101 28.08452,-15.56092 3.18749,-2.44436 3.35457,-2.35967 5.81233,-4.70592 6.04618,-5.77185 11.56916,-12.08945 17.34909,-18.14313 6.62354,-6.93713 13.14072,-13.98657 19.99762,-20.68686 5.74826,-5.61694 11.53132,-11.33365 17.99927,-16.04468 8.20041,-5.9728 15.04584,-7.79278 23.21686,1.10743 1.84454,2.00909 3.15173,4.5018 4.80817,6.69494 6.20666,8.2179 12.18756,16.62705 18.77148,24.53281 5.48676,6.58841 11.64386,12.62707 17.66742,18.74844 0.6861,0.69724 2.78394,0.92978 3.62317,0.40744 7.61865,-4.74179 14.38934,-3.97305 20.24908,2.67807 3.5791,4.06247 6.6944,8.59342 10.61078,12.2851 5.87226,5.53549 12.10053,10.73135 18.48535,15.67389 5.84949,4.52807 12.10712,8.5288 19.42786,13.62753 2.64838,-41.96115 -3.65802,-79.96268 -30.25287,-112.20413 -27.3493,-33.15605 -63.21394,-44.63947 -105.6523,-43.459 -24.57471,3.69833 -30.14383,5.93349 -49.02714,15.8172 -25.23954,13.21062 -41.31528,35.41771 -51.56311,61.85887 -8.02146,20.69662 -9.84023,39.41932 -11.46961,61.44952 -0.30515,4.12581 -0.34205,5.53319 -0.2006,9.85801 0.33524,0.24124 0.15717,3.8682 0.55491,4.98444 0.55923,-0.73947 3.31933,-2.86466 4.37807,-4.04457 m 202.01081,100.44601 c 14.18468,-12.75518 33.8526,-34.09696 33.86296,-46.68542 -12.72651,3.44028 -29.10547,5.88569 -42.32215,6.58903 -18.91988,1.00684 -36.87336,-0.63745 -55.89288,-6.37385 -15.84672,-4.77946 -30.45603,-13.00262 -45.62128,-19.65139 -11.07187,-4.8541 -22.31671,-8.95591 -34.55521,-9.60556 -18.32635,-0.97281 -34.47879,5.89511 -50.22799,14.03732 -1.18946,0.61496 -2.44431,3.4014 -2.00116,4.5145 2.14291,10.55658 5.3641,19.83254 12.06179,28.307 6.16871,-3.68555 11.21369,-6.67309 16.59947,-8.52252 5.41064,-1.858 12.3166,-3.51335 18.10864,-3.10845 12.20366,0.8531 21.9559,2.36922 32.85818,6.83147 6.95267,2.84577 13.7677,6.17752 20.93613,8.3118 11.17138,3.32614 22.50396,6.26373 33.93829,8.49457 6.49255,1.26672 21.92352,0.95736 21.92352,0.95736 0,0 -2.6831,1.75886 -3.41479,1.97095 -7.46314,2.16333 -17.71977,3.01397 -26.64504,2.75493 -11.90256,-0.34545 -23.62178,-3.21206 -35.2604,-5.72855 -7.85989,-1.69946 -23.28353,-6.31437 -23.28353,-6.31437 -8.74619,-2.37192 -18.8141,-3.75704 -27.97643,-2.60567 -6.89107,0.86596 -12.51395,4.89359 -19.22296,8.94058 8.84003,9.3034 15.26125,15.33275 24.47466,21.98018 8.0752,5.82617 16.50766,10.46143 25.46683,14.1156 18.7244,7.63715 38.2785,9.56641 58.40482,7.20169 12.28387,-1.44326 25.89934,-3.53122 37.08941,-8.57245 9.23047,-4.15841 20.50964,-9.66577 30.69912,-17.83875 z M 455.65588,354.06226 c -8.8334,-3.84748 -16.96798,-7.19086 -25.80136,-11.03833 -1.08763,-0.49888 -1.68636,-0.33624 -1.95639,0.50177 -0.51878,1.85575 1.03253,3.5375 2.17957,4.66387 2.54971,2.5037 5.50778,4.59165 8.29986,6.84848 8.04422,6.50208 15.94001,13.19965 24.17316,19.45298 8.96076,6.806 17.64874,14.33826 27.5473,19.43258 8.80567,4.53186 17.76494,7.54936 27.70759,9.15045 13.52287,2.17761 27.93755,2.60248 41.4298,0.91273 3.2403,-0.40577 7.19141,-0.73507 10.31772,-1.36116 5.83397,-1.16835 10.50872,-1.41486 14.60061,-2.66192 1.51744,-5.42971 1.68932,-7.7817 2.44302,-15.11215 -5.76782,-3.07705 -8.52773,-4.60818 -10.54445,-5.8616 -6.73938,-4.1886 -13.88239,-7.92178 -19.95514,-12.93793 -6.98834,-5.77234 -13.34212,-12.39706 -19.49402,-19.10684 -3.87182,-4.22293 -4.75716,-4.55281 -6.03632,-3.68472 -1.01394,0.77408 -1.48618,1.28715 -1.16369,5.03608 0.2014,2.34132 0.40803,3.13733 1.65122,7.6872 1.63159,5.01914 2.3055,6.60448 3.91628,11.63033 -4.98035,-2.03782 -9.89886,-4.39484 -13.39606,-8.09516 -6.38836,-6.75955 -12.17712,-14.13321 -17.76367,-21.58957 -5.24926,-7.00616 -9.93792,-14.43414 -14.82855,-21.70654 -3.26385,-4.85327 -6.11102,-10.03266 -9.76947,-14.56125 -3.35876,-4.15753 -7.21643,-8.09528 -11.49579,-11.26355 -3.02185,-2.23727 -7.34683,-0.15564 -7.31915,3.13232 0.0336,3.9906 0.54623,8.17197 1.86023,11.9169 2.84283,8.10212 6.32855,15.97867 9.55133,23.94748 -6.95874,-3.04416 -12.52893,-6.98754 -18.49756,-10.18783 -1.7875,-0.95844 -5.78971,-1.10139 -7.07803,0.32406 -1.70291,2.31803 -0.0197,4.45704 1.03229,5.9242 3.04846,4.25149 6.79226,7.99615 10.00402,12.14053 6.53079,8.42719 12.89145,16.9863 19.32224,25.49106 0.72735,1.51373 0.15789,2.09 -1.28656,1.16626 -5.90845,-4.12302 -11.94428,-6.4299 -19.65003,-10.19073 z"
   id="path2"
   sodipodi:nodetypes="csssssssssssssssssssccscsssssssssssscscssscccccsssssccssssscsaasscsssscccccsssssssccssscsccssssssscscsscc" />
</svg>