<?xml version="1.0" encoding="UTF-8" standalone="no"?>
<svg
   viewBox="280 70 465 465"
   width="100%"
   style="background:transparent"
   version="1.1"
   id="svg1"
   sodipodi:docname="ORAYA_emblem.svg"
   inkscape:version="1.3.2 (091e20e, 2023-11-25, custom)"
   inkscape:export-filename="ORAYA_emblem.svg"
   inkscape:export-xdpi="96"
   inkscape:export-ydpi="96"
   xmlns:inkscape="http://www.inkscape.org/namespaces/inkscape"
   xmlns:sodipodi="http://sodipodi.sourceforge.net/DTD/sodipodi-0.dtd"
   xmlns="http://www.w3.org/2000/svg"
   xmlns:svg="http://www.w3.org/2000/svg">
  <defs
     id="defs1" />
  <sodipodi:namedview
     id="namedview1"
     pagecolor="#ffffff"
     bordercolor="#000000"
     borderopacity="0.25"
     inkscape:showpageshadow="2"
     inkscape:pageopacity="0.0"
     inkscape:pagecheckerboard="0"
     inkscape:deskcolor="#d1d1d1"
     inkscape:zoom="1.7483871"
     inkscape:cx="232.21402"
     inkscape:cy="232.5"
     inkscape:window-width="1920"
     inkscape:window-height="1009"
     inkscape:window-x="-8"
     inkscape:window-y="-8"
     inkscape:window-maximized="1"
     inkscape:current-layer="svg1" />
  <path
     fill="#c5a46d"
     opacity="1"
     stroke="none"
     d="m 441.43316,94.217131 c 25.39064,-7.134511 50.71633,-11.702073 76.53691,-10.77111 30.46317,1.098378 60.12666,6.757325 88.55701,18.548629 30.76177,12.75823 57.76831,30.92948 79.69276,55.77402 11.78423,13.35383 21.74802,28.46987 31.38286,43.52684 13.30933,20.79922 20.10016,44.40575 23.92197,68.45554 3.59096,22.59665 3.0839,45.45201 -0.47351,68.34906 -3.84898,24.77331 -12.63441,47.5104 -24.64611,69.12347 -13.58403,24.44219 -31.51041,45.19026 -53.68816,62.50768 -15.71178,12.26846 -31.95156,23.47897 -50.10258,31.64699 -20.84225,9.37915 -42.43665,16.54094 -65.3752,18.57334 -13.72934,1.21649 -27.49893,2.38853 -41.26818,2.65191 -22.43669,0.42932 -44.17566,-4.11961 -65.60609,-10.53592 -30.73448,-9.20196 -57.85318,-24.6083 -82.31465,-45.35672 -20.28308,-17.20433 -36.75207,-37.38901 -49.62146,-60.39074 -12.91724,-23.08706 -21.0378,-47.99425 -23.90931,-74.41759 -1.14189,-10.50795 -2.94316,-21.11323 -2.49921,-31.59179 1.1819,-27.89747 6.05596,-54.99671 17.34059,-81.00865 12.59692,-29.03702 30.89686,-53.73233 53.91692,-74.81822 23.40758,-21.44079 50.56496,-37.18943 80.72175,-47.512689 2.3284,-0.797028 4.58533,-1.802947 7.43369,-2.75405 M 349.25001,317.04135 c 7.81341,-6.85284 15.25499,-14.19929 23.53323,-20.43503 10.62446,-8.00299 25.02992,-17.84745 38.58338,-21.37807 4.37907,-3.35814 4.60861,-3.24179 7.98516,-6.46514 8.30643,-7.92955 15.89407,-16.60886 23.83472,-24.92559 9.09962,-9.53045 18.05313,-19.21519 27.47335,-28.42025 7.89714,-7.71673 15.84208,-15.57052 24.72795,-22.04268 11.26598,-8.20562 20.67044,-10.70596 31.89604,1.52142 2.53409,2.76015 4.32995,6.18471 6.60562,9.19772 8.5269,11.29 16.74364,22.84275 25.78884,33.70393 7.53788,9.05136 15.99669,17.34746 24.27205,25.75719 0.94258,0.95789 3.82466,1.27736 4.97762,0.55975 10.46674,-6.51442 19.76852,-5.4583 27.81881,3.67922 4.91708,5.58115 9.19698,11.8059 14.57742,16.87765 8.0675,7.60483 16.62409,14.74306 25.39575,21.53328 8.03621,6.2208 16.63314,11.71712 26.6906,18.72192 3.63842,-57.64753 -5.02551,-109.85521 -41.56234,-154.14951 -37.57331,-45.55081 -86.84526,-61.32709 -145.1484,-59.70532 -33.7615,5.08088 -41.41253,8.15161 -67.355,21.73016 -34.67487,18.14915 -56.76022,48.65794 -70.839,84.98363 -11.02013,28.43366 -13.51881,54.15548 -15.75731,84.42125 -0.41922,5.66817 -0.46992,7.60167 -0.27559,13.54324 0.46057,0.33143 0.21593,5.31426 0.76235,6.84778 0.76829,-1.01591 4.5602,-3.93556 6.01473,-5.55655 M 626.7787,455.03719 c 19.48736,-17.52346 46.50776,-46.84346 46.52199,-64.13788 -17.48408,4.72636 -39.986,8.08594 -58.14348,9.05221 -25.99272,1.38323 -50.65777,-0.87574 -76.78737,-8.75659 -21.77072,-6.56617 -41.84144,-17.8634 -62.67593,-26.99769 -15.21088,-6.66871 -30.65939,-12.3039 -47.47302,-13.19641 -25.17731,-1.33648 -47.36803,8.09888 -69.00477,19.2849 -1.63412,0.84485 -3.35807,4.67295 -2.74926,6.20216 2.944,14.50296 7.36937,27.24656 16.57087,38.88904 8.47476,-5.06333 15.40571,-9.1677 22.80486,-11.70851 7.43331,-2.55257 16.92093,-4.82675 24.87821,-4.27048 16.76577,1.17201 30.1637,3.25491 45.14159,9.38528 9.55179,3.90961 18.91449,8.48687 28.7627,11.41901 15.34759,4.56956 30.91664,8.60531 46.62548,11.67011 8.91966,1.74025 30.11921,1.31525 30.11921,1.31525 0,0 -3.68613,2.41637 -4.69135,2.70775 -10.25309,2.97205 -24.34397,4.14068 -36.60578,3.78481 -16.3521,-0.47459 -32.45233,-4.41283 -48.44183,-7.87006 -10.79816,-2.33477 -31.98763,-8.67488 -31.98763,-8.67488 -12.01579,-3.25862 -25.8474,-5.16154 -38.43489,-3.57975 -9.46717,1.18968 -17.19205,6.72297 -26.4091,12.28285 12.14471,12.7813 20.96638,21.0646 33.62405,30.19705 11.09396,8.00417 22.67873,14.37223 34.98712,19.39245 25.72416,10.49215 52.58819,13.14263 80.23835,9.8939 16.87596,-1.98279 35.58132,-4.8513 50.95458,-11.7771 12.68111,-5.71295 28.17678,-13.27913 42.1754,-24.50742 z M 503.45352,304.40394 c -12.1356,-5.28579 -23.31113,-9.87903 -35.44671,-15.1648 -1.49421,-0.68538 -2.31677,-0.46194 -2.68774,0.68935 -0.71272,2.54949 1.41852,4.85993 2.99436,6.40737 3.50287,3.43966 7.56676,6.30815 11.4026,9.40865 11.0514,8.93276 21.89888,18.13409 33.20984,26.72511 12.31057,9.35029 24.24638,19.69834 37.84533,26.69708 12.0975,6.22601 24.40603,10.37154 38.06555,12.57117 18.57814,2.99167 38.38147,3.57537 56.91754,1.25394 4.45163,-0.55746 9.87978,-1.00986 14.1748,-1.87001 8.01489,-1.60511 14.43721,-1.94377 20.05878,-3.65702 2.0847,-7.45951 2.32084,-10.69074 3.35629,-20.76154 -7.92401,-4.22735 -11.71566,-6.33086 -14.48629,-8.05285 -9.25877,-5.75443 -19.07206,-10.88319 -27.41499,-17.77453 -9.6008,-7.93022 -18.32982,-17.03147 -26.78149,-26.24957 -5.31923,-5.80159 -6.53553,-6.25479 -8.29288,-5.06218 -1.39298,1.06345 -2.04176,1.76832 -1.59872,6.91872 0.27669,3.21658 0.56057,4.31016 2.2685,10.56091 2.24153,6.89545 3.16737,9.07344 5.38031,15.97811 -6.84216,-2.79962 -13.59936,-6.03777 -18.40392,-11.12138 -8.77653,-9.28648 -16.72931,-19.41664 -24.40428,-29.66042 -7.2116,-9.62528 -13.65303,-19.83007 -20.37193,-29.82112 -4.48397,-6.66757 -8.3955,-13.78318 -13.4216,-20.00469 -4.61437,-5.71175 -9.91415,-11.12155 -15.79327,-15.47422 -4.15151,-3.07363 -10.0933,-0.21382 -10.05527,4.30328 0.0462,5.48241 0.75042,11.22691 2.55564,16.37181 3.90557,11.13094 8.69436,21.95199 13.12191,32.89979 -9.56013,-4.18216 -17.21263,-9.5997 -25.41252,-13.99636 -2.45572,-1.31673 -7.95408,-1.51312 -9.72402,0.4452 -2.33951,3.18459 -0.0271,6.12322 1.41819,8.13885 4.18807,5.84083 9.33142,10.98536 13.74384,16.67904 8.9722,11.57753 17.71067,23.3363 26.54549,35.02041 0.99926,2.07961 0.21691,2.8713 -1.76752,1.60224 -8.11721,-5.66433 -16.40942,-8.83359 -26.99582,-14.00034 z"
     id="path2"
     sodipodi:nodetypes="csssssssssssssssssssccscsssssssssssscscssscccccsssssccssssscsaasscsssscccccsssssssccssscsccssssssscscsscc"
     style="stroke-width:1.37383" />
</svg>
